<?xml version="1.0" encoding="iso-8859-1"?>
<!-- Generator: Adobe Illustrator 18.0.0, SVG Export Plug-In . SVG Version: 6.00 Build 0)  -->
<!DOCTYPE svg PUBLIC "-//W3C//DTD SVG 1.1//EN" "http://www.w3.org/Graphics/SVG/1.1/DTD/svg11.dtd">
<svg version="1.1" id="Capa_1" xmlns="http://www.w3.org/2000/svg" xmlns:xlink="http://www.w3.org/1999/xlink" x="0px" y="0px"
	 viewBox="0 0 297 297" style="enable-background:new 0 0 297 297;" xml:space="preserve">
<path d="M278.576,74.191h-44.705v154.41h-21.675V74.191h21.612V56.07c0-15.159,12.304-27.492,27.428-27.492
	c5.984,0,10.837-4.852,10.837-10.838c0-5.985-4.852-10.838-10.837-10.838c-15.455,0-29.259,7.195-38.267,18.407
	c-9.008-11.212-22.814-18.407-38.272-18.407c-5.985,0-10.838,4.853-10.838,10.838c0,5.985,4.853,10.838,10.838,10.838
	c15.128,0,27.436,12.333,27.436,27.492v18.121H18.424C8.291,74.191,0,82.483,0,92.615v117.562c0,10.133,8.291,18.424,18.424,18.424
	h193.71v12.329c0,15.158-12.308,27.491-27.436,27.491c-5.985,0-10.838,4.854-10.838,10.838c0,5.985,4.853,10.838,10.838,10.838
	c15.458,0,29.264-7.195,38.272-18.407c9.008,11.212,22.811,18.407,38.267,18.407c5.984,0,10.837-4.853,10.837-10.838
	c0-5.984-4.852-10.838-10.837-10.838c-15.124,0-27.428-12.333-27.428-27.491v-12.329h44.767c10.133,0,18.424-8.291,18.424-18.424
	V92.615C297,82.483,288.709,74.191,278.576,74.191z"/>
<g>
</g>
<g>
</g>
<g>
</g>
<g>
</g>
<g>
</g>
<g>
</g>
<g>
</g>
<g>
</g>
<g>
</g>
<g>
</g>
<g>
</g>
<g>
</g>
<g>
</g>
<g>
</g>
<g>
</g>
</svg>
