<?xml version="1.0" encoding="UTF-8" standalone="no"?>
<!-- Generated by IcoMoon.io -->

<svg
   xmlns:dc="http://purl.org/dc/elements/1.1/"
   xmlns:cc="http://creativecommons.org/ns#"
   xmlns:rdf="http://www.w3.org/1999/02/22-rdf-syntax-ns#"
   xmlns:svg="http://www.w3.org/2000/svg"
   xmlns="http://www.w3.org/2000/svg"
   xmlns:sodipodi="http://sodipodi.sourceforge.net/DTD/sodipodi-0.dtd"
   xmlns:inkscape="http://www.inkscape.org/namespaces/inkscape"
   version="1.1"
   width="16"
   height="16"
   viewBox="0 0 16 16"
   id="svg3336"
   inkscape:version="0.91 r13725"
   sodipodi:docname="button_transition.svg">
  <metadata
     id="metadata3344">
    <rdf:RDF>
      <cc:Work
         rdf:about="">
        <dc:format>image/svg+xml</dc:format>
        <dc:type
           rdf:resource="http://purl.org/dc/dcmitype/StillImage" />
        <dc:title></dc:title>
      </cc:Work>
    </rdf:RDF>
  </metadata>
  <defs
     id="defs3342" />
  <sodipodi:namedview
     pagecolor="#ffffff"
     bordercolor="#666666"
     borderopacity="1"
     objecttolerance="10"
     gridtolerance="10"
     guidetolerance="10"
     inkscape:pageopacity="0"
     inkscape:pageshadow="2"
     inkscape:window-width="1134"
     inkscape:window-height="811"
     id="namedview3340"
     showgrid="false"
     inkscape:zoom="29.521708"
     inkscape:cx="8.5548403"
     inkscape:cy="8.1788458"
     inkscape:window-x="241"
     inkscape:window-y="3"
     inkscape:window-maximized="0"
     inkscape:current-layer="layer2" />
  <path
     d="M15.7 5.3l-1-1c-0.2-0.2-0.4-0.3-0.7-0.3h-13c-0.6 0-1 0.4-1 1v5c0 0.3 0.1 0.6 0.3 0.7l1 1c0.2 0.2 0.4 0.3 0.7 0.3h13c0.6 0 1-0.4 1-1v-5c0-0.3-0.1-0.5-0.3-0.7zM14 10h-13v-5h13v5z"
     id="path3338"
     style="fill:#000000"
     fill="#444444" />
  <g
     inkscape:groupmode="layer"
     id="layer1"
     inkscape:label="Layer 1" />
  <g
     inkscape:groupmode="layer"
     id="layer2"
     inkscape:label="Layer 2">
    <rect
       style="fill:#000000"
       id="rect3354"
       width="8.143713"
       height="1.1017964"
       x="3.1665518"
       y="6.8982034" />
    <rect
       style="fill:#000000"
       id="rect3358"
       width="2.8466225"
       height="0.88472539"
       x="11.095343"
       y="-3.9530423"
       ry="0"
       transform="matrix(0.67313075,0.73952349,-0.68919969,0.72457145,0,0)" />
    <rect
       style="fill:#000000"
       id="rect3358-8"
       width="2.7351089"
       height="0.83454686"
       x="-3.966881"
       y="-13.829432"
       ry="0"
       transform="matrix(-0.72748047,0.68612839,-0.66982999,-0.7425145,0,0)" />
  </g>
</svg>
